<svg width="270" height="270" xmlns="http://www.w3.org/2000/svg">  
        <path d="m163.42878,155.68411l0,-118.05579c0,-15.26655 -12.41129,-27.62832 -27.66133,-27.62832c-15.28305,0 -27.64483,12.36178 -27.64483,27.62832l0,117.12329c-17.37911,9.52302 -29.17973,27.98317 -29.17973,49.19129c0,30.96221 25.10315,56.05711 56.05711,56.05711c30.97046,0 56.05711,-25.0949 56.05711,-56.05711c0.00825,-20.5727 -11.10744,-38.52121 -27.62832,-48.25879zm-28.42053,95.11471c-25.82109,0 -46.83941,-21.02657 -46.83941,-46.87242c0,-17.09853 9.34148,-32.8437 24.37696,-41.08764l4.79452,-2.60769l0,-122.61099c0,-10.15844 8.27694,-18.41063 18.45189,-18.41063c10.15844,0 18.41888,8.25219 18.41888,18.41063l0,123.30418l4.5222,2.67371c14.49084,8.54927 23.15564,23.60951 23.15564,40.32844c-0.0165,25.84585 -21.04308,46.87242 -46.88067,46.87242zm19.04605,-79.254l-9.06915,-5.33917l0,-80.53309l-18.42713,0l0,80.00495l-9.58079,5.24014c-12.0812,6.64301 -19.59894,19.2606 -19.59894,33.00875c0,20.746 16.89223,37.63822 37.62997,37.63822c20.75425,0 37.62997,-16.89223 37.62997,-37.63822c0.0165,-13.22 -7.10513,-25.62304 -18.58393,-32.38158z" stroke-width="5" stroke="#000000" fill="#FF0000" />    
</svg>